<svg width="137" height="77" viewBox="0 0 137 77" fill="none" xmlns="http://www.w3.org/2000/svg">
<path d="M101.615 39.4804C101.615 39.2084 101.647 39.0244 101.711 38.9284C101.791 38.8164 101.927 38.7604 102.119 38.7604C102.327 38.7604 102.679 38.9764 103.175 39.4084C103.671 39.8404 103.935 40.2244 103.967 40.5604C104.031 41.1364 104.335 42.1604 104.879 43.6324C105.423 45.0884 106.047 46.5684 106.751 48.0724C107.647 47.0164 108.775 45.6164 110.135 43.8724C111.495 42.1124 112.503 40.8644 113.159 40.1284C113.815 39.3924 114.287 39.0244 114.575 39.0244C114.863 39.0244 115.167 39.1844 115.487 39.5044C115.807 39.8244 115.967 40.1284 115.967 40.4164C115.967 40.7044 115.935 41.0324 115.871 41.4004C115.807 41.7684 115.695 42.2564 115.535 42.8644C115.391 43.4564 115.255 43.9764 115.127 44.4244C115.015 44.8564 114.823 45.5364 114.551 46.4644C114.279 47.3924 114.071 48.1364 113.927 48.6964C113.783 49.2404 113.615 49.9124 113.423 50.7124C113.231 51.4964 113.071 52.1444 112.943 52.6564C112.831 53.1524 112.711 53.6404 112.583 54.1204C112.343 55.0484 112.111 55.5124 111.887 55.5124C111.679 55.5124 111.471 55.3204 111.263 54.9364C111.055 54.5524 110.951 54.0404 110.951 53.4004C110.951 52.7444 111.223 51.2564 111.767 48.9364C112.327 46.6164 112.927 44.5844 113.567 42.8404C110.623 46.5204 108.807 48.7204 108.119 49.4404C107.447 50.1604 106.887 50.5204 106.439 50.5204C106.007 50.5204 105.599 50.2724 105.215 49.7764C104.639 48.9444 103.863 46.9764 102.887 43.8724C102.615 45.5524 102.311 46.9924 101.975 48.1924C101.655 49.3764 101.439 50.1684 101.327 50.5684C101.231 50.9524 101.143 51.2724 101.063 51.5284C100.999 51.7844 100.919 52.0884 100.823 52.4404C100.727 52.7764 100.639 53.0564 100.559 53.2804C100.495 53.5044 100.423 53.7524 100.343 54.0244C100.263 54.2804 100.191 54.4884 100.127 54.6484C100.079 54.8084 100.023 54.9604 99.959 55.1044C99.831 55.3764 99.735 55.5124 99.671 55.5124C99.479 55.5124 99.239 55.3044 98.951 54.8884C98.663 54.4724 98.519 54.0724 98.519 53.6884C98.519 53.3044 99.031 51.0964 100.055 47.0644C101.095 43.0324 101.615 40.5044 101.615 39.4804ZM126.433 47.7124C126.433 48.5604 125.969 49.2564 125.041 49.8004C124.129 50.3284 123.089 50.5924 121.921 50.5924C120.769 50.5924 119.721 50.4644 118.777 50.2084C118.553 50.9124 118.441 51.5444 118.441 52.1044C118.441 52.6484 118.609 53.0724 118.945 53.3764C119.297 53.6804 119.865 53.8324 120.649 53.8324C121.449 53.8324 122.265 53.6964 123.097 53.4244C123.945 53.1364 124.409 52.9924 124.489 52.9924C124.905 52.9924 125.113 53.1524 125.113 53.4724C125.113 53.9044 124.625 54.3764 123.649 54.8884C122.673 55.3844 121.721 55.6324 120.793 55.6324C119.545 55.6324 118.529 55.2644 117.745 54.5284C116.961 53.7764 116.569 52.8324 116.569 51.6964C116.569 50.5604 116.873 49.3764 117.481 48.1444C118.089 46.8964 118.873 45.8484 119.833 45.0004C120.793 44.1524 121.745 43.7284 122.689 43.7284C123.633 43.7284 124.489 44.1764 125.257 45.0724C126.041 45.9684 126.433 46.8484 126.433 47.7124ZM122.809 45.6244C122.217 45.6244 121.601 45.9364 120.961 46.5604C120.321 47.1684 119.777 47.9284 119.329 48.8404C119.969 48.9844 120.697 49.0564 121.513 49.0564C122.329 49.0564 123.041 48.9284 123.649 48.6724C124.257 48.4004 124.561 48.0484 124.561 47.6164C124.561 47.1844 124.361 46.7444 123.961 46.2964C123.577 45.8484 123.193 45.6244 122.809 45.6244Z" fill="black"/>
<path d="M15.1246 24.3882C13.1631 21.9871 11.8945 19.0393 9.56671 16.7322C8.57289 15.7472 6.577 14.2488 8.59723 13.0824C10.5686 11.9443 13.7895 12.3748 16.015 11.644C17.45 11.1728 20.7614 10.6196 21.161 9.12803" stroke="black" stroke-width="3" stroke-linecap="round"/>
<path d="M15.2613 16.9369C16.8195 18.0054 18.4377 18.6692 20.0848 19.5277C21.1314 20.0731 21.3812 20.8487 22.5837 21.1709C24.5428 21.6959 26.3581 22.8314 28.3097 23.3544C29.549 23.6864 30.4327 24.5723 31.63 24.8932C33.1607 25.3033 34.7331 25.6435 36.2352 26.1451C38.7588 26.988 41.252 27.7959 43.847 28.4913C48.5876 29.7615 66.7201 32.67 63.28 23.0596C61.8018 18.9302 57.7668 16.9663 53.8014 15.9037C52.0867 15.4443 50.6018 15.8664 50.0765 17.8268C49.8922 18.5143 50.7657 19.9593 51.1884 20.541C51.651 21.1774 52.3889 21.4561 52.8178 22.1316C53.2413 22.7983 53.5912 23.4804 54.0945 24.0965C58.018 28.8993 63.0138 32.9675 68.2817 36.1565C75.1309 40.3028 82.0151 44.2361 89.8265 46.3291" stroke="black" stroke-width="3" stroke-linecap="round"/>
</svg>
